HIERARCHY
ROOT Hips
{
	OFFSET -3.958830 18.904000 13.208200
	CHANNELS 6 Xposition Yposition Zposition Zrotation Yrotation Xrotation 
	JOINT LHipJoint
	{
		OFFSET 0.000000 0.000000 0.000000
		CHANNELS 3 Zrotation Yrotation Xrotation
		JOINT LeftUpLeg
		{
			OFFSET 1.800000 -1.400000 0.085000
			CHANNELS 3 Zrotation Yrotation Xrotation
			JOINT LeftLeg
			{
				OFFSET 2.215000 -6.000000 0.000000
				CHANNELS 3 Zrotation Yrotation Xrotation
				JOINT LeftFoot
				{
					OFFSET 2.500000 -6.900000 0.000000
					CHANNELS 3 Zrotation Yrotation Xrotation
					JOINT LeftToeBase
					{
						OFFSET 0.200000 -0.500000 1.950000
						CHANNELS 3 Zrotation Yrotation Xrotation
						End Site
						{
							OFFSET 0.000000 0.000000 0.000000
						}
					}
				}
			}
		}
	}
	JOINT RHipJoint
	{
		OFFSET 0.000000 0.000000 0.000000
		CHANNELS 3 Zrotation Yrotation Xrotation
		JOINT RightUpLeg
		{
			OFFSET -1.800000 -1.400000 0.085000
			CHANNELS 3 Zrotation Yrotation Xrotation
			JOINT RightLeg
			{
				OFFSET -2.215000 -6.000000 0.000000
				CHANNELS 3 Zrotation Yrotation Xrotation
				JOINT RightFoot
				{
					OFFSET -2.500000 -6.900000 0.000000
					CHANNELS 3 Zrotation Yrotation Xrotation
					JOINT RightToeBase
					{
						OFFSET -0.200000 -0.500000 1.950000
						CHANNELS 3 Zrotation Yrotation Xrotation
						End Site
						{
							OFFSET 0.000000 0.000000 0.000000
						}
					}
				}
			}
		}
	}
	JOINT LowerBack
	{
		OFFSET 0.000000 0.000000 0.000000
		CHANNELS 3 Zrotation Yrotation Xrotation
		JOINT Spine
		{
			OFFSET -0.087000 1.940000 -0.288900
			CHANNELS 3 Zrotation Yrotation Xrotation
			JOINT Spine1
			{
				OFFSET 0.000000 1.950000 0.060000
				CHANNELS 3 Zrotation Yrotation Xrotation
				JOINT Neck
				{
					OFFSET 0.000000 0.000000 0.000000
					CHANNELS 3 Zrotation Yrotation Xrotation
					JOINT Neck1
					{
						OFFSET 0.000000 1.600000 0.340000
						CHANNELS 3 Zrotation Yrotation Xrotation
						JOINT Head
						{
							OFFSET 0.000000 1.667000 -0.240000
							CHANNELS 3 Zrotation Yrotation Xrotation
							End Site
							{
								OFFSET 0.000000 0.000000 0.000000
							}
						}
					}
				}
				JOINT LeftShoulder
				{
					OFFSET 0.000000 0.000000 0.000000
					CHANNELS 3 Zrotation Yrotation Xrotation
					JOINT LeftArm
					{
						OFFSET 2.700000 1.550000 -0.730000
						CHANNELS 3 Zrotation Yrotation Xrotation
						JOINT LeftForeArm
						{
							OFFSET 5.450000 0.000000 0.000000
							CHANNELS 3 Zrotation Yrotation Xrotation
							JOINT LeftHand
							{
								OFFSET 3.450000 0.000000 0.000000
								CHANNELS 3 Zrotation Yrotation Xrotation
								JOINT LeftHandIndex1
								{
									OFFSET 0.750000 0.000000 0.000000
									CHANNELS 3 Zrotation Yrotation Xrotation
									End Site
									{
										OFFSET 0.000000 0.000000 0.000000
									}
								}
							}
						}
					}
				}
				JOINT RightShoulder
				{
					OFFSET 0.000000 0.000000 0.000000
					CHANNELS 3 Zrotation Yrotation Xrotation
					JOINT RightArm
					{
						OFFSET -2.700000 1.550000 -0.730000
						CHANNELS 3 Zrotation Yrotation Xrotation
						JOINT RightForeArm
						{
							OFFSET -5.450000 0.000000 0.000000
							CHANNELS 3 Zrotation Yrotation Xrotation
							JOINT RightHand
							{
								OFFSET -3.450000 0.000000 0.000000
								CHANNELS 3 Zrotation Yrotation Xrotation
								JOINT RightHandIndex1
								{
									OFFSET -0.750000 0.000000 0.000000
									CHANNELS 3 Zrotation Yrotation Xrotation
									End Site
									{
										OFFSET 0.000000 0.000000 0.000000
									}
								}
							}
						}
					}
				}
			}
		}
	}
}
MOTION
Frames: 9
Frame Time: 0.016667
1.722180 15.791960 -9.319890 6.827653 -11.269936 0.792263 -14.809223 12.286115 2.458265 22.016673 2.665688 8.206404 -17.261636 14.164653 20.501382 0.609995 7.733865 1.730362 0.791610 0.802550 0.530670 18.800766 -9.194192 5.311346 -19.106052 14.628286 -42.225252 26.525737 -15.248398 40.832337 -1.480976 -7.481053 1.308251 0.329710 -0.393930 0.147190 -4.877241 -0.643152 -8.714287 22.029491 -7.262091 15.936228 -16.821669 -0.270175 27.102333 12.999657 -9.358053 -24.811037 -19.468170 0.830560 34.878445 8.471290 -7.174320 -36.952530 -17.873206 -40.182809 12.685610 -55.227946 -10.799010 -5.559492 23.794853 0.707218 -1.311916 -2.940948 3.394954 0.780250 -0.653450 0.656870 0.127930 -5.000515 55.579978 18.413978 41.058752 24.202126 -5.091693 -10.800721 -18.378787 1.120535 3.287966 -1.192921 0.158600 0.268580 -0.202380 0.024230 
1.915740 15.734450 -9.464190 5.859053 5.572081 -0.009870 -14.654608 11.706555 1.758098 25.817087 0.220040 4.124380 -9.998418 12.218750 24.950875 0.292305 7.450099 1.795859 0.869450 0.926650 0.515770 19.067528 -9.458269 5.280436 -27.674337 7.466628 -41.101995 35.688888 -18.147547 33.123042 -1.494985 -8.197506 1.043554 0.499330 -0.233430 0.179850 -5.489282 0.713496 -8.226352 26.508214 -10.327146 9.482954 -18.047311 -4.176157 27.840329 11.581052 -8.314919 -19.686151 -14.343955 -1.144324 28.718837 4.542880 -7.819760 -29.132920 -13.443222 -40.667995 14.098800 -59.075624 -10.747314 -4.404608 21.329331 2.123736 -0.637994 -3.109816 3.501162 0.552110 -0.433770 0.500950 0.214390 -7.159059 51.920950 16.946255 49.674694 25.334853 -2.292209 -11.227727 -14.577507 0.774179 2.874290 -1.668470 0.145020 0.274170 -0.240400 0.066380 
2.027010 15.684980 -9.611470 6.248993 12.436988 0.084270 -14.643159 11.457987 1.487962 26.058747 -0.081910 0.788410 -8.105039 11.923034 27.516945 0.187820 7.425297 1.779059 0.744250 0.816060 0.432940 19.153151 -9.496158 5.436274 -32.349347 5.168774 -40.234936 38.822572 -18.718914 30.306911 -1.428898 -8.484721 0.950999 0.480880 -0.116120 0.182220 -5.669674 1.219762 -8.236188 26.062872 -9.381514 8.134315 -16.616523 -3.690065 26.979330 10.279496 -7.695480 -18.717321 -12.319686 -0.954587 27.019166 2.175370 -6.693330 -24.632930 -12.474714 -40.111295 14.224109 -59.963544 -10.055041 -4.847554 22.890040 3.134034 -0.532407 -3.318137 3.491958 0.431390 -0.288280 0.379790 0.172300 -5.463828 50.644112 16.560160 54.472954 25.912929 -3.847382 -14.883195 -15.496951 0.726418 2.765713 -1.832132 0.094650 0.276310 -0.157250 0.062810 
2.147340 15.677130 -9.790330 6.535538 18.383234 -1.223772 -14.662790 11.476184 1.216277 25.008291 -0.256024 -1.722605 -5.405685 11.204619 30.322762 0.165146 7.299821 1.830401 0.689560 0.800670 0.377900 19.181097 -9.560733 5.401788 -35.498535 3.424436 -37.408718 40.242284 -18.691201 28.180950 -1.365443 -8.648040 0.901343 0.493810 -0.028160 0.172780 -5.778200 1.179004 -8.151255 25.124181 -8.368446 7.834996 -14.826404 -3.080146 27.911065 8.353440 -7.161584 -18.625527 -11.699967 -0.861556 27.537790 0.625260 -6.345710 -19.737810 -8.430195 -42.705036 15.144289 -59.178119 -11.290278 -3.397684 19.754052 5.510437 0.043661 -3.425049 3.518543 0.285210 -0.178020 0.293540 0.182690 -5.597331 51.686441 16.956753 55.573181 24.888881 -3.342600 -13.820469 -14.697764 0.620421 2.728079 -1.910344 0.091960 0.273090 -0.152190 0.099670 
2.284900 15.684680 -9.963840 6.750947 23.161002 -2.193156 -14.726524 11.528322 1.187999 24.178900 -0.343074 -3.769290 -4.971721 11.218129 32.188408 0.212602 7.319598 1.760109 0.756320 0.853310 0.472100 19.143055 -9.452305 5.360162 -38.661605 2.253544 -33.546671 41.849775 -17.577749 24.303225 -1.366314 -8.509887 0.878418 0.488050 -0.130370 0.234430 -5.737141 0.778969 -8.186894 24.582962 -7.585731 8.408978 -13.683166 -2.478999 27.905799 7.275433 -7.147070 -18.964007 -12.416690 0.045075 28.499239 -0.540730 -4.824830 -19.273220 -7.004350 -43.788675 15.813646 -56.605399 -11.372339 -2.039680 16.769369 7.501009 0.414755 -3.412580 3.594663 0.279590 -0.209680 0.359190 0.167350 -5.055606 51.753107 16.708855 55.540727 24.290339 -3.206057 -14.170149 -14.043950 0.725457 2.775034 -1.973546 0.173180 0.156220 -0.209320 0.084340 
2.439570 15.729510 -10.111080 7.074544 26.554286 -2.815195 -14.765620 11.571895 1.253334 23.058536 -0.228502 -4.247626 -6.111742 11.601756 32.214961 0.253809 7.389048 1.744596 0.746610 0.806520 0.461640 19.104852 -9.455514 5.198375 -40.274953 1.710233 -30.486262 40.351670 -16.326990 22.201682 -1.280961 -8.304605 0.917786 0.450930 -0.119440 0.252050 -5.732629 0.535149 -8.162478 24.236117 -7.500379 8.779161 -14.010806 -1.800954 27.394879 6.520265 -7.595026 -19.134052 -13.746370 2.360821 29.211968 0.587110 -3.090270 -18.134770 -7.037321 -43.007018 16.483435 -55.136484 -9.239746 -2.289338 17.768530 7.079540 0.292783 -3.399693 3.639597 0.300400 -0.217640 0.347590 0.176330 -3.604916 50.776827 16.058725 55.446760 24.964682 -2.962168 -15.038009 -13.263899 0.839416 2.790377 -2.002180 0.170030 0.115020 -0.206830 0.078670 
2.578560 15.785380 -10.277690 6.867774 31.174826 -3.649614 -14.824403 11.570201 1.364527 22.496263 -0.529521 -6.290059 -6.570946 11.544138 32.401555 0.112871 7.427779 1.747232 0.694030 0.749860 0.503880 19.011027 -9.701251 4.886321 -40.157357 1.050497 -26.859845 36.967948 -15.006662 20.329362 -1.146741 -7.975013 1.031685 0.467680 -0.051620 0.238110 -5.727726 0.729643 -8.125475 23.935228 -6.778167 9.245758 -12.722271 -1.613513 26.970841 6.076445 -7.068737 -18.076550 -12.257099 2.994555 28.661280 -2.254040 -1.158360 -18.844920 -7.181396 -39.726121 15.222923 -51.630900 -10.085086 -1.623041 18.839294 7.066186 0.090064 -3.601368 3.406346 0.335150 -0.132160 0.333530 0.144010 -2.512570 46.996394 14.854187 54.365975 25.441856 -1.823522 -15.069102 -13.224034 0.954810 2.747001 -1.877719 0.069760 0.232380 -0.164020 0.019050 
2.713200 15.807200 -10.442860 6.783507 36.310223 -4.304184 -14.953728 11.588261 1.594729 22.695039 -1.077492 -9.163844 -7.389861 12.147156 34.161099 0.027164 7.877744 1.564576 0.586000 0.564670 0.518680 18.873449 -9.747679 4.541013 -40.568947 0.109449 -23.661266 33.970055 -14.609326 19.544585 -1.022529 -7.857619 1.029033 0.415170 0.012170 0.274060 -5.564412 0.483413 -8.124997 22.508911 -6.238612 10.214595 -11.117844 -1.744301 25.328937 4.956236 -5.949460 -16.530309 -10.165729 4.113288 28.462918 -4.175500 1.258410 -17.521120 -5.511971 -35.859179 14.169564 -48.898950 -10.733715 -0.498562 18.371556 4.914523 -0.297116 -3.777585 3.282128 0.371550 -0.045520 0.271990 0.067110 -2.348197 41.493727 13.030766 55.542232 25.556078 -1.705153 -18.739782 -9.893908 0.394645 2.643016 -1.864539 -0.030080 0.235020 -0.064460 -0.065740 
2.988350 15.779220 -10.584830 4.416660 35.421306 -1.204606 -15.024134 11.337478 2.390397 26.204274 -0.715773 -13.692482 -13.575324 14.843517 31.497653 0.300949 8.597517 1.397563 0.230110 0.127520 0.290720 18.860991 -9.233884 4.349934 -40.585470 0.096236 -27.257071 30.746244 -14.213182 19.555078 -0.729085 -7.485450 1.266045 0.131720 0.213500 0.279640 -5.189123 -0.148876 -8.312749 24.519217 -5.287973 8.808838 -10.351244 -1.446810 15.010787 3.706535 -5.845658 -13.982395 -10.260618 6.449944 27.199227 -6.232490 5.788270 -10.150980 -10.637558 -22.921832 10.713258 -43.555972 -5.651524 -0.655832 16.599199 -0.706721 -0.635939 -3.997042 3.147254 0.247520 0.130700 0.070060 0.033930 3.797546 27.819151 8.855346 55.925508 20.435010 0.001533 -16.851999 -2.569782 -0.220009 2.665244 -1.681173 -0.111830 0.139720 0.057450 -0.056930 
